# xmcd
#
# Track frame offsets:
#	200
#	13430
#	26437
#	40352
#	52657
#	64145
#	78162
#	96835
#	107615
#	121805
#	133965
#	149052
#
# Disc length: 2114 seconds
#
# Revision: 2
# Processed by: cddbd v1.4b42PL1 Copyright (c) Steve Scherf et al.
# Submitted via: EasyCDDAExtractor 4.5.0.2
#
DISCID=a408400c
DTITLE=Mike Auldridge - Tresures Untold
DYEAR=1990
DGENRE=Bluegrass
TTITLE0=Are You Wating Just for Me
TTITLE1=Memories of You Dear
TTITLE2=Shenandoah Waltz
TTITLE3=Deep Water
TTITLE4=Why Should I be Lonely
TTITLE5=Drivin' Nails in My Coffin
TTITLE6=Trains Make Me Lonesome
TTITLE7=Tuck Away My Lonesome Blues
TTITLE8=Carolina Palms
TTITLE9=Walking the Floor Over You
TTITLE10=Treasure Untold
TTITLE11=Rasin' the Dickens
EXTD=
EXTT0=
EXTT1=
EXTT2=
EXTT3=
EXTT4=
EXTT5=
EXTT6=
EXTT7=
EXTT8=
EXTT9=
EXTT10=
EXTT11=
PLAYORDER=
